<?xml version="1.0" encoding="UTF-8" standalone="no"?>
<!-- Created with Inkscape (http://www.inkscape.org/) -->

<svg
   width="210mm"
   height="297mm"
   viewBox="0 0 210 297"
   version="1.1"
   id="svg5"
   xml:space="preserve"
   inkscape:export-filename="logo2.png"
   inkscape:export-xdpi="96"
   inkscape:export-ydpi="96"
   inkscape:version="1.4.2 (ebf0e940d0, 2025-05-08)"
   sodipodi:docname="logo2.svg"
   xmlns:inkscape="http://www.inkscape.org/namespaces/inkscape"
   xmlns:sodipodi="http://sodipodi.sourceforge.net/DTD/sodipodi-0.dtd"
   xmlns="http://www.w3.org/2000/svg"
   xmlns:svg="http://www.w3.org/2000/svg"><sodipodi:namedview
     id="namedview7"
     pagecolor="#505050"
     bordercolor="#eeeeee"
     borderopacity="1"
     inkscape:showpageshadow="0"
     inkscape:pageopacity="0"
     inkscape:pagecheckerboard="0"
     inkscape:deskcolor="#505050"
     inkscape:document-units="mm"
     showgrid="false"
     inkscape:zoom="0.5209506"
     inkscape:cx="429.98319"
     inkscape:cy="381.99399"
     inkscape:window-width="1920"
     inkscape:window-height="1028"
     inkscape:window-x="2560"
     inkscape:window-y="0"
     inkscape:window-maximized="1"
     inkscape:current-layer="layer1" /><defs
     id="defs2"><style
       id="style5943">.cls-1{fill:#fff;}</style><clipPath
       id="clip1"><path
         d="M 240 27 L 255.121094 27 L 255.121094 48 L 240 48 Z M 240 27 "
         id="path6104" /></clipPath><clipPath
       id="clip2"><path
         d="M 85 53 L 100 53 L 100 73.949219 L 85 73.949219 Z M 85 53 "
         id="path6107" /></clipPath><clipPath
       id="clip3"><path
         d="M 103 53 L 120 53 L 120 73.949219 L 103 73.949219 Z M 103 53 "
         id="path6110" /></clipPath><clipPath
       id="clip4"><path
         d="M 122 53 L 136 53 L 136 73.949219 L 122 73.949219 Z M 122 53 "
         id="path6113" /></clipPath><clipPath
       id="clip5"><path
         d="M 137 53 L 153 53 L 153 73.949219 L 137 73.949219 Z M 137 53 "
         id="path6116" /></clipPath><clipPath
       id="clip6"><path
         d="M 156 53 L 172 53 L 172 73.949219 L 156 73.949219 Z M 156 53 "
         id="path6119" /></clipPath><clipPath
       id="clip7"><path
         d="M 175 53 L 189 53 L 189 73.949219 L 175 73.949219 Z M 175 53 "
         id="path6122" /></clipPath><clipPath
       id="clip8"><path
         d="M 192 53 L 208 53 L 208 73.949219 L 192 73.949219 Z M 192 53 "
         id="path6125" /></clipPath><clipPath
       id="clip9"><path
         d="M 241 0 L 255.121094 0 L 255.121094 21 L 241 21 Z M 241 0 "
         id="path6128" /></clipPath><clipPath
       id="clip10"><path
         d="M 0 0 L 74 0 L 74 73.949219 L 0 73.949219 Z M 0 0 "
         id="path6131" /></clipPath></defs><g
     inkscape:label="Ebene 1"
     inkscape:groupmode="layer"
     id="layer1"><text
       xml:space="preserve"
       style="font-style:normal;font-variant:normal;font-weight:normal;font-stretch:normal;font-size:42.3333px;font-family:'Open Sans';-inkscape-font-specification:'Open Sans';text-align:start;writing-mode:lr-tb;direction:ltr;text-anchor:start;fill:#ffffff;stroke-width:0.264583"
       x="56.375305"
       y="129.00294"
       id="text2"><tspan
         sodipodi:role="line"
         id="tspan2"
         style="stroke-width:0.264583;fill:#ffffff"
         x="56.375305"
         y="129.00294">PR1</tspan></text><g
       id="g4"
       transform="matrix(0.36569428,0,0,0.36569428,99.963403,85.984438)"><circle
         style="fill:#399746;fill-opacity:1;stroke:none;stroke-width:0;stroke-dasharray:none"
         id="circle2"
         cx="124.00332"
         cy="55.346188"
         r="20" /><circle
         style="fill:#ca3c32;fill-opacity:1;stroke:none;stroke-width:0;stroke-dasharray:none"
         id="circle3"
         cx="99.927536"
         cy="98.008583"
         r="20" /><circle
         style="fill:#9259a3;fill-opacity:1;stroke:none;stroke-width:0;stroke-dasharray:none"
         id="circle4"
         cx="148.0791"
         cy="98.008583"
         r="20" /></g></g></svg>
