<?xml version="1.0" encoding="UTF-8" standalone="no"?>
<!-- Created with Inkscape (http://www.inkscape.org/) -->

<svg
   width="210mm"
   height="297mm"
   viewBox="0 0 210 297"
   version="1.1"
   id="svg5"
   xml:space="preserve"
   inkscape:export-filename="logo3.png"
   inkscape:export-xdpi="96"
   inkscape:export-ydpi="96"
   inkscape:version="1.2.2 (b0a8486541, 2022-12-01)"
   sodipodi:docname="logo.svg"
   xmlns:inkscape="http://www.inkscape.org/namespaces/inkscape"
   xmlns:sodipodi="http://sodipodi.sourceforge.net/DTD/sodipodi-0.dtd"
   xmlns="http://www.w3.org/2000/svg"
   xmlns:svg="http://www.w3.org/2000/svg"><sodipodi:namedview
     id="namedview7"
     pagecolor="#505050"
     bordercolor="#eeeeee"
     borderopacity="1"
     inkscape:showpageshadow="0"
     inkscape:pageopacity="0"
     inkscape:pagecheckerboard="0"
     inkscape:deskcolor="#505050"
     inkscape:document-units="mm"
     showgrid="false"
     inkscape:zoom="0.5209506"
     inkscape:cx="270.65906"
     inkscape:cy="416.54621"
     inkscape:window-width="1920"
     inkscape:window-height="1007"
     inkscape:window-x="1920"
     inkscape:window-y="0"
     inkscape:window-maximized="1"
     inkscape:current-layer="layer1" /><defs
     id="defs2"><style
       id="style5943">.cls-1{fill:#fff;}</style><clipPath
       id="clip1"><path
         d="M 240 27 L 255.121094 27 L 255.121094 48 L 240 48 Z M 240 27 "
         id="path6104" /></clipPath><clipPath
       id="clip2"><path
         d="M 85 53 L 100 53 L 100 73.949219 L 85 73.949219 Z M 85 53 "
         id="path6107" /></clipPath><clipPath
       id="clip3"><path
         d="M 103 53 L 120 53 L 120 73.949219 L 103 73.949219 Z M 103 53 "
         id="path6110" /></clipPath><clipPath
       id="clip4"><path
         d="M 122 53 L 136 53 L 136 73.949219 L 122 73.949219 Z M 122 53 "
         id="path6113" /></clipPath><clipPath
       id="clip5"><path
         d="M 137 53 L 153 53 L 153 73.949219 L 137 73.949219 Z M 137 53 "
         id="path6116" /></clipPath><clipPath
       id="clip6"><path
         d="M 156 53 L 172 53 L 172 73.949219 L 156 73.949219 Z M 156 53 "
         id="path6119" /></clipPath><clipPath
       id="clip7"><path
         d="M 175 53 L 189 53 L 189 73.949219 L 175 73.949219 Z M 175 53 "
         id="path6122" /></clipPath><clipPath
       id="clip8"><path
         d="M 192 53 L 208 53 L 208 73.949219 L 192 73.949219 Z M 192 53 "
         id="path6125" /></clipPath><clipPath
       id="clip9"><path
         d="M 241 0 L 255.121094 0 L 255.121094 21 L 241 21 Z M 241 0 "
         id="path6128" /></clipPath><clipPath
       id="clip10"><path
         d="M 0 0 L 74 0 L 74 73.949219 L 0 73.949219 Z M 0 0 "
         id="path6131" /></clipPath></defs><g
     inkscape:label="Ebene 1"
     inkscape:groupmode="layer"
     id="layer1"><circle
       style="fill:#399746;stroke:none;stroke-width:0;fill-opacity:1;stroke-dasharray:none"
       id="path788"
       cx="51.775963"
       cy="98.008583"
       r="20" /><circle
       style="fill:#ca3c32;fill-opacity:1;stroke:none;stroke-width:0;stroke-dasharray:none"
       id="circle5801"
       cx="99.927536"
       cy="98.008583"
       r="20" /><circle
       style="fill:#9259a3;fill-opacity:1;stroke:none;stroke-width:0;stroke-dasharray:none"
       id="circle5803"
       cx="148.0791"
       cy="98.008583"
       r="20" /><g
       id="g6338"
       transform="translate(-5.6278471,-105.27105)"><g
         clip-path="url(#clip10)"
         clip-rule="nonzero"
         id="g6216"
         transform="matrix(0.35277778,0,0,0.35277778,44.423379,190.22341)"><path
           style="fill:#ffffff;fill-opacity:1;fill-rule:nonzero;stroke:none"
           d="M 0,22.539062 V 51.484375 L 22.320312,73.804688 H 36.792969 V 71.574219 H 23.183594 L 2.230469,50.621094 V 23.402344 L 23.183594,2.449219 H 36.792969 V 0.214844 H 22.320312 Z m 36.792969,51.265626 h 14.546875 l 22.25,-22.320313 V 22.539062 l -22.25,-22.324218 H 36.792969 V 2.449219 H 50.40625 l 20.949219,20.953125 v 27.21875 L 50.40625,71.574219 H 36.792969 v 2.230469"
           id="path6214" /></g><path
         style="fill:#ffffff;fill-opacity:1;fill-rule:nonzero;stroke:none;stroke-width:0.352778"
         d="M 57.403121,191.8743 H 52.90796 l -6.909483,6.90948 v 0.96463 h 7.87411 v 8.2572 h 3.530534 v -0.78823 h -2.742296 v -8.25583 h -7.722526 l 6.299012,-6.30039 h 4.16581 z m 11.406022,7.87411 v -0.96463 l -6.909484,-6.90948 h -4.496538 v 0.78686 h 4.191992 l 6.299013,6.30039 h -7.721148 v 8.25583 h -2.769857 v 0.78823 h 3.556716 v -8.2572 h 7.849306"
         id="path6218" /><path
         style="fill:#ffffff;fill-opacity:1;fill-rule:nonzero;stroke:none;stroke-width:0.352778"
         d="m 57.403121,209.57933 h -5.105632 v -8.25582 h -5.512153 v 6.14743 l 6.451975,6.42717 h 4.16581 v 0.78686 H 52.90796 l -6.909483,-6.90811 v -7.24021 h 7.08725 v 8.25582 h 4.317394 z m 10.643967,-8.25582 h -5.512153 v 8.25582 h -5.131814 v -0.78686 h 4.344954 v -8.25582 h 7.061068 v 7.24021 l -6.909484,6.90811 h -4.496538 v -0.78686 h 4.191992 l 6.42717,-6.42717 0.0248,-6.14743"
         id="path6220" /></g><text
       xml:space="preserve"
       style="font-size:10.5833px;font-family:sans-serif;-inkscape-font-specification:sans-serif;fill:#9259a3;fill-opacity:1;stroke:none;stroke-width:0;stroke-dasharray:none"
       x="91.729095"
       y="100.89212"
       id="text6342"><tspan
         sodipodi:role="line"
         id="tspan6340"
         style="font-style:normal;font-variant:normal;font-weight:normal;font-stretch:normal;font-size:10.5833px;font-family:'Open Sans';-inkscape-font-specification:'Open Sans';fill:#ffffff;stroke-width:0"
         x="91.729095"
         y="100.89212">mn</tspan></text><text
       xml:space="preserve"
       style="font-style:normal;font-variant:normal;font-weight:normal;font-stretch:normal;font-size:10.5833px;font-family:'Open Sans';-inkscape-font-specification:'Open Sans';fill:#ffffff;fill-opacity:1;stroke:none;stroke-width:0;stroke-dasharray:none"
       x="135.0696"
       y="100.78876"
       id="text6396"><tspan
         sodipodi:role="line"
         id="tspan6394"
         style="stroke-width:0"
         x="135.0696"
         y="100.78876">math</tspan></text><text
       xml:space="preserve"
       style="font-style:normal;font-variant:normal;font-weight:normal;font-stretch:normal;font-size:10.5833px;font-family:'Open Sans';-inkscape-font-specification:'Open Sans';fill:#ffffff;fill-opacity:1;stroke:none;stroke-width:0;stroke-dasharray:none"
       x="73.911308"
       y="100.89212"
       id="text6502"><tspan
         sodipodi:role="line"
         id="tspan6500"
         style="stroke-width:0"
         x="73.911308"
         y="100.89212">/</tspan></text><text
       xml:space="preserve"
       style="font-style:normal;font-variant:normal;font-weight:normal;font-stretch:normal;font-size:10.5833px;font-family:'Open Sans';-inkscape-font-specification:'Open Sans';fill:#ffffff;fill-opacity:1;stroke:none;stroke-width:0;stroke-dasharray:none"
       x="122.06287"
       y="100.89212"
       id="text6506"><tspan
         sodipodi:role="line"
         id="tspan6504"
         style="stroke-width:0"
         x="122.06287"
         y="100.89212">/</tspan></text></g></svg>
